<svg width="15" height="9" viewBox="0 0 15 9" fill="none" xmlns="http://www.w3.org/2000/svg">
<path fill-rule="evenodd" clip-rule="evenodd" d="M10.2103 0.139168L3.66648 6.87477L0.789354 3.93575C0.608904 3.75019 0.315787 3.75019 0.135337 3.93575C-0.0451125 4.1213 -0.0451125 4.42171 0.135337 4.60679L3.34084 7.88086C3.51946 8.06405 3.8167 8.06405 3.99532 7.88086L10.8643 0.810213C11.0452 0.62513 11.0452 0.324251 10.8643 0.139168C10.6839 -0.0463894 10.3908 -0.0463894 10.2103 0.139168Z" fill="#0C8FE4"/>
<path fill-rule="evenodd" clip-rule="evenodd" d="M13.4163 0.139864C13.4163 0.139864 8.74057 4.75765 6.40267 7.06654C6.34847 7.12008 5.76767 6.87518 5.56277 6.77489C5.56277 6.77489 4.90394 7.36252 5.0164 7.46285C5.13322 7.56707 6.62916 8.32265 6.82033 8.13855L14.1163 0.814264C14.31 0.628256 14.31 0.325873 14.1163 0.139864C13.9232 -0.0466214 13.6095 -0.0466214 13.4163 0.139864Z" fill="#0C8FE4"/>
</svg>
